# Blender 4.1.1
# www.blender.org
mtllib LF_constraints_in_RF_cutZcutY25cutX30.mtl
o LF_constraints_in_RF_COM_reduced_LF_constraints_in_RF_COM.001_L
v -0.300000 0.184519 -0.077868
v -0.300000 0.185597 0.200000
v -0.300000 0.250000 0.200000
v -0.300000 0.250000 -0.049125
v 0.299781 0.250000 -0.009883
v 0.299781 0.250000 0.200000
v 0.299781 0.250000 -0.071549
v 0.299781 0.193182 -0.091841
v 0.299781 0.200836 0.200000
vn 0.5853 -0.5641 0.5824
vn -0.5555 -0.4801 -0.6789
vn 0.5647 -0.4584 -0.6863
vn 1.0000 -0.0000 -0.0000
vn 0.5857 0.6665 -0.4613
vn -0.5773 0.5773 0.5774
vn 0.5774 0.5773 0.5774
vn -0.6129 0.6595 -0.4352
vn -0.5707 -0.5808 0.5805
s 1
usemtl Default_OBJ.001
f 9//1 1//2 8//3
f 5//4 9//1 8//3
f 1//2 7//5 8//3
f 3//6 9//1 6//7
f 6//7 4//8 3//6
f 4//8 2//9 3//6
f 9//1 2//9 1//2
f 8//3 7//5 5//4
f 5//4 6//7 9//1
f 1//2 4//8 7//5
f 3//6 2//9 9//1
f 6//7 7//5 4//8
f 4//8 1//2 2//9
