# Blender v2.93.4 OBJ File: 'untitled.blend'
# www.blender.org
mtllib LF_constraints_in_RF_COM_reducedsy.mtl
o LF_constraints_in_RF_COM_reduced_LF_constraints_in_RF_COM.001_LF_constraints_in_RF_COM_reduced_LF_constraints_in_RF_COM.004
v -0.331775 0.363784 0.002300
v 0.326344 0.309415 -0.051542
v 0.323160 0.193520 -0.092386
v -0.318786 0.449386 0.487880
v 0.314792 0.468698 0.284220
v 0.294626 0.208653 0.493852
v -0.318211 0.320888 0.469058
v -0.251003 0.208613 0.449137
v -0.325702 0.185005 0.220126
v -0.321589 0.184207 -0.077365
v 0.327184 0.407812 0.092301
v 0.293395 0.426171 0.531630
vn -0.0495 0.3332 -0.9416
vn -0.0848 0.9817 -0.1708
vn -0.0797 -0.2202 0.9722
vn -0.9996 -0.0030 0.0288
vn 0.0222 -0.9996 0.0188
vn -0.0222 0.9525 -0.3036
vn 0.9988 -0.0028 0.0487
vn -0.0271 0.4041 -0.9143
vn 0.0251 0.9849 0.1715
vn -0.0729 -0.1614 0.9842
vn 0.9948 -0.0708 0.0739
vn -0.9986 -0.0506 -0.0137
vn -0.7898 -0.5281 0.3120
vn 0.9902 -0.1014 0.0961
vn -0.0086 -0.9944 0.1053
vn 0.9993 -0.0335 0.0171
vn 0.0220 0.8251 -0.5645
usemtl Default_OBJ.011
s 1
f 1//1 2//1 3//1
f 4//2 5//2 1//2
f 6//3 7//3 8//3
f 9//4 7//4 4//4 1//4
f 3//5 6//5 9//5 10//5
f 1//6 5//6 11//6
f 12//7 6//7 3//7
f 10//8 1//8 3//8
f 4//9 12//9 5//9
f 6//10 12//10 4//10 7//10
f 5//11 12//11 3//11
f 1//12 10//12 9//12
f 8//13 7//13 9//13
f 5//14 3//14 11//14
f 6//15 8//15 9//15
f 11//16 3//16 2//16
f 2//17 1//17 11//17
