# Blender 4.1.1
# www.blender.org
mtllib RF_antecedent_cutZcutY25.mtl
o LF_constraints_in_RF_COM_reduced_LF_constraints_in_RF_COM.0
v -0.321087 0.193520 0.092386
v 0.323662 0.184207 0.077365
v -0.306856 0.201068 -0.200000
v 0.328336 0.201523 -0.200000
v 0.327497 0.184951 -0.200000
v -0.322148 0.250000 0.043709
v 0.328391 0.250000 -0.200000
v -0.306993 0.250000 -0.200000
v 0.327394 0.250000 0.048178
v -0.322639 0.250000 0.072481
v 0.329983 0.250000 -0.140935
vn -0.5584 0.5800 -0.5932
vn 0.6877 0.1697 -0.7059
vn -0.9112 0.4093 -0.0468
vn -0.0000 1.0000 -0.0000
vn -0.9993 -0.0335 -0.0171
vn 0.7255 0.6883 0.0035
vn 0.7129 -0.0262 -0.7008
vn 0.5587 -0.5933 -0.5795
vn 0.9986 -0.0506 0.0137
vn 0.9989 -0.0457 0.0137
vn -0.0201 -0.9997 -0.0152
vn -0.5651 -0.5686 -0.5978
vn -0.9968 -0.0619 -0.0501
vn 0.0309 0.3719 0.9277
s 1
usemtl Default_OBJ.004
f 8//1 6//3 7//2
s 0
f 7//4 6//4 10//4 9//4
s 1
f 6//5 1//5 10//5
f 11//6 9//10 2//9 5//8 4//7
f 1//11 3//12 5//8 2//11
f 7//2 4//7 5//8 3//12 8//1
f 3//12 1//13 6//3
f 4//7 7//2 11//6
f 11//6 7//2 9//10
f 8//1 3//12 6//3
f 9//14 10//14 1//14 2//14
