# Blender 4.1.1
# www.blender.org
mtllib RF_antecedent_CUTZ.mtl
o foo.001
v 0.315717 0.199447 0.075045
v -0.324409 0.205788 -0.061247
v -0.150214 0.888616 -0.173444
v 0.317062 0.231358 -0.190000
v -0.308452 0.201772 -0.190000
v 0.317813 0.336204 -0.190000
v 0.271024 0.842880 -0.190000
v -0.322475 0.364074 -0.190000
v 0.262084 0.846822 -0.190000
v -0.142957 0.890878 -0.190000
v -0.168155 0.881852 -0.190000
v 0.274186 0.197382 -0.190000
v -0.316704 0.583359 -0.190000
v -0.118239 0.891020 -0.190000
v 0.313917 0.821096 -0.190000
v -0.312229 0.686959 -0.190000
v -0.264373 0.194435 -0.190000
v -0.286229 0.194558 -0.190000
v -0.322251 0.241894 -0.190000
v -0.286080 0.789000 -0.190000
v 0.168065 0.872782 -0.190000
v -0.300163 0.780564 -0.190000
v 0.315792 0.253869 0.150000
v -0.306351 0.198017 0.150000
v 0.073169 0.782469 0.150000
v -0.034755 0.794498 0.150000
v 0.310568 0.203516 0.150000
v 0.223118 0.197809 0.150000
v 0.314760 0.224755 0.150000
v -0.230610 0.192408 0.150000
v -0.290100 0.192742 0.150000
v -0.319947 0.236184 0.150000
v -0.189841 0.713571 0.150000
v 0.316912 0.410171 0.150000
v 0.230439 0.713127 0.150000
v -0.315753 0.395543 0.150000
v 0.315062 0.640398 0.150000
v -0.306582 0.607887 0.150000
v -0.249446 0.666639 0.150000
v 0.048906 0.789169 0.150000
v -0.303155 0.634467 0.150000
vn -0.5198 -0.5639 -0.6418
vn -0.7150 -0.0996 -0.6920
vn -0.9403 -0.3234 -0.1064
vn -0.5266 -0.5692 0.6315
vn -0.9398 -0.3348 0.0680
vn -0.7229 -0.1032 0.6832
vn -0.4788 0.6883 -0.5449
vn -0.6700 0.5267 -0.5232
vn -0.7264 0.0669 -0.6840
vn -0.7167 0.0268 -0.6968
vn -0.7135 0.0144 -0.7005
vn -0.1168 -0.7294 -0.6740
vn 0.0103 -0.7070 -0.7071
vn 0.2289 -0.7182 -0.6571
vn 0.7019 -0.3161 -0.6382
vn 0.7098 -0.0004 -0.7044
vn 0.7321 0.4745 -0.4888
vn 0.4149 0.7199 -0.5565
vn 0.2912 0.7803 -0.5534
vn 0.1507 0.8072 -0.5707
vn 0.0418 0.7927 -0.6082
vn -0.0991 0.7606 -0.6416
vn -0.4557 0.6810 -0.5732
vn 0.6185 -0.7805 -0.0908
vn 0.0176 -0.7097 0.7043
vn 0.5117 -0.5903 0.6243
vn 0.0650 -0.9962 0.0585
vn 0.7047 -0.0698 0.7060
vn 0.9781 -0.1931 0.0777
vn -0.7014 0.0225 0.7124
vn -0.7019 0.0560 0.7101
vn -0.6440 0.3323 0.6890
vn -0.3288 0.4816 0.8124
vn -0.3310 0.4884 0.8074
vn -0.1014 0.6322 0.7681
vn 0.0915 0.6161 0.7823
vn 0.1914 0.5616 0.8050
vn 0.3022 0.5122 0.8039
vn 0.6862 0.2377 0.6874
vn 0.7080 0.0010 0.7062
vn 0.7065 -0.0111 0.7076
vn -0.0074 -0.7102 0.7039
vn -0.1188 -0.7330 0.6697
vn -0.4261 0.8165 0.3897
vn -0.3371 0.9413 -0.0192
vn 0.0614 0.9640 0.2586
vn 0.0094 -1.0000 -0.0016
vn -0.5840 0.7417 0.3299
vn -0.0057 0.9911 0.1329
vn -0.9998 -0.0018 -0.0173
vn -0.9995 0.0263 0.0173
vn -0.3087 -0.9511 -0.0086
vn 0.9991 -0.0354 0.0247
vn 1.0000 -0.0072 0.0042
s 1
usemtl None.007
f 5//1 2//3 19//2
f 24//4 32//6 2//5
f 20//7 11//23 10//22 14//21 21//20 9//19 7//18 15//17 6//16 4//15 12//14 17//13 18//12 5//1 19//2 8//11 13//10 16//9 22//8
f 12//14 4//15 1//24
f 28//25 1//27 27//26
f 27//26 1//29 29//28
f 24//4 31//43 30//42 28//25 27//26 29//28 23//41 34//40 37//39 35//38 25//37 40//36 26//35 33//34 39//33 41//32 38//31 36//30 32//6
f 33//34 26//35 3//44
f 11//23 3//45 10//22
f 41//32 39//33 20//7 22//8
f 31//43 18//12 17//13 30//42
f 26//35 40//36 21//20 14//21 3//46
f 38//31 16//9 13//10 36//30
f 28//25 30//42 17//13 12//14 1//47
f 39//33 33//34 3//48 11//23 20//7
f 3//49 14//21 10//22
f 2//50 8//11 19//2
f 32//6 36//30 13//10 8//11 2//51
f 35//38 37//39 15//17 7//18
f 35//38 7//18 9//19 25//37
f 31//43 24//4 2//52 5//1 18//12
f 22//8 16//9 38//31 41//32
f 6//16 15//17 37//39 34//40
f 9//19 21//20 40//36 25//37
f 1//53 23//41 29//28
f 1//54 4//15 6//16 34//40 23//41
