# Blender 4.1.1
# www.blender.org
mtllib RF_constraints_in_LF_cutZcutY25cutX30.mtl
o LF_constraints_in_RF_COM_reduced_LF_constraints_in_RF_COM.0
v 0.300000 -0.193215 -0.091895
v 0.300000 -0.250000 -0.071635
v 0.300000 -0.250000 0.200000
v 0.300000 -0.200894 0.200000
v -0.300000 -0.184549 -0.077916
v -0.300000 -0.185650 0.200000
v -0.300000 -0.250000 -0.049202
v -0.300000 -0.250000 0.200000
vn -0.7942 -0.2260 -0.5641
vn -0.5707 0.5808 0.5805
vn -0.5555 0.4802 -0.6788
vn -0.7071 -0.0000 0.7071
vn 0.7071 -0.0000 0.7071
vn 0.5853 0.5641 0.5824
vn -0.0000 -1.0000 -0.0000
vn 0.7624 -0.2406 -0.6007
vn 0.5647 0.4585 -0.6862
s 1
usemtl Default_OBJ.004
f 7//1 6//2 5//3
f 8//4 3//5 4//6
f 7//1 8//4 6//2
f 8//4 4//6 6//2
f 5//3 6//2 4//6
s 0
f 7//7 2//7 3//7
s 1
f 5//3 2//8 7//1
f 2//8 4//6 3//5
s 0
f 7//7 3//7 8//7
s 1
f 2//8 1//9 4//6
f 5//3 4//6 1//9
f 5//3 1//9 2//8
